<?xml version="1.0"?>
<?xml-stylesheet type="text/css" href="../anim.css"?>
<svg width="280" height="50" viewPort="0 0 280 50" version="1.1" xmlns="http://www.w3.org/2000/svg" xmlns:xlink="http://www.w3.org/1999/xlink">
    <defs>
        <symbol id="I" viewPort="0 0 50 50">
            <image xlink:href="https://mnemo.pro/image/wireI.png" x="0" y="0" width="50" height="50"/>
            <g class="data-in-top">
                <rect x="-8" y="-10" width="16" height="20" rx="5" ry="5" fill="#ff8c00"/>
                <text x="0" y="7" text-anchor="middle" font-size="14" font-weight="bold" fill="white">8</text>
            </g>
            <g class="data-out-bottom">
                <rect x="-8" y="-10" width="16" height="20" rx="5" ry="5" fill="#ff8c00"/>
                <text x="0" y="7" text-anchor="middle" font-size="14" font-weight="bold" fill="white">8</text>
            </g>
        </symbol>

        <symbol id="L" viewPort="0 0 50 50">
            <image xlink:href="https://mnemo.pro/image/wireL.png" x="0" y="0" width="50" height="50"/>
            <g class="data-in-top">
                <rect x="-8" y="-10" width="16" height="20" rx="5" ry="5" fill="#ff8c00"/>
                <text x="0" y="7" text-anchor="middle" font-size="14" font-weight="bold" fill="white">8</text>
            </g>
            <g class="data-out-right">
                <rect x="-8" y="-10" width="16" height="20" rx="5" ry="5" fill="#ff8c00"/>
                <text x="0" y="7" text-anchor="middle" font-size="14" font-weight="bold" fill="white">8</text>
            </g>
        </symbol>

        <symbol id="T" viewPort="0 0 50 50">
            <image xlink:href="https://mnemo.pro/image/wireT.png" x="0" y="0" width="50" height="50"/>
            <g class="data-in-top">
                <rect x="-8" y="-10" width="16" height="20" rx="5" ry="5" fill="#ff8c00"/>
                <text x="0" y="7" text-anchor="middle" font-size="14" font-weight="bold" fill="white">8</text>
            </g>
            <g class="data-out-left">
                <rect x="-8" y="-10" width="16" height="20" rx="5" ry="5" fill="#ff8c00"/>
                <text x="0" y="7" text-anchor="middle" font-size="14" font-weight="bold" fill="white">8</text>
            </g>
            <g class="data-out-right">
                <rect x="-8" y="-10" width="16" height="20" rx="5" ry="5" fill="#ff8c00"/>
                <text x="0" y="7" text-anchor="middle" font-size="14" font-weight="bold" fill="white">8</text>
            </g>
        </symbol>

        <symbol id="Xdot" viewPort="0 0 50 50">
            <image xlink:href="https://mnemo.pro/image/wireXdot.png" x="0" y="0" width="50" height="50"/>
            <g class="data-in-top">
                <rect x="-8" y="-10" width="16" height="20" rx="5" ry="5" fill="#ff8c00"/>
                <text x="0" y="7" text-anchor="middle" font-size="14" font-weight="bold" fill="white">8</text>
            </g>
            <g class="data-out-left">
                <rect x="-8" y="-10" width="16" height="20" rx="5" ry="5" fill="#ff8c00"/>
                <text x="0" y="7" text-anchor="middle" font-size="14" font-weight="bold" fill="white">8</text>
            </g>
            <g class="data-out-bottom">
                <rect x="-8" y="-10" width="16" height="20" rx="5" ry="5" fill="#ff8c00"/>
                <text x="0" y="7" text-anchor="middle" font-size="14" font-weight="bold" fill="white">8</text>
            </g>
            <g class="data-out-right">
                <rect x="-8" y="-10" width="16" height="20" rx="5" ry="5" fill="#ff8c00"/>
                <text x="0" y="7" text-anchor="middle" font-size="14" font-weight="bold" fill="white">8</text>
            </g>
        </symbol>
    </defs>

    <use xlink:href="#I" x="0" y="0" width="50" height="50" />
    <use xlink:href="#L" x="70" y="0" width="50" height="50" />
    <use xlink:href="#T" x="140" y="0" width="50" height="50" />
    <use xlink:href="#Xdot" x="210" y="0" width="50" height="50" />
</svg>
