<?xml version="1.0"?>
<?xml-stylesheet type="text/css" href="../anim.css"?>
<svg width="350" height="50" viewPort="0 0 350 50" version="1.1" xmlns="http://www.w3.org/2000/svg" xmlns:xlink="http://www.w3.org/1999/xlink">
    <defs>
        <symbol id="plus1" viewPort="0 0 50 50">
            <image xlink:href="https://mnemo.pro/image/wireI.png" x="0" y="0" width="50" height="50"/>
            <image xlink:href="https://mnemo.pro/image/plus-1.png" x="0" y="0" width="50" height="50"/>
            <g class="data-in-top">
                <rect x="-8" y="-10" width="16" height="20" rx="5" ry="5" fill="#ff8c00"/>
                <text x="0" y="7" text-anchor="middle" font-size="14" font-weight="bold" fill="white">1</text>
            </g>
            <g class="data-out-bottom">
                <rect x="-8" y="-10" width="16" height="20" rx="5" ry="5" fill="#ff8c00"/>
                <text x="0" y="7" text-anchor="middle" font-size="14" font-weight="bold" fill="white">2</text>
            </g>
        </symbol>
        <symbol id="x2" viewPort="0 0 50 50">
            <image xlink:href="https://mnemo.pro/image/wireI.png" x="0" y="0" width="50" height="50"/>
            <image xlink:href="https://mnemo.pro/image/times-2.png" x="0" y="0" width="50" height="50"/>
            <g class="data-in-top">
                <rect x="-8" y="-10" width="16" height="20" rx="5" ry="5" fill="#ff8c00"/>
                <text x="0" y="7" text-anchor="middle" font-size="14" font-weight="bold" fill="white">8</text>
            </g>
            <g class="data-out-bottom">
                <rect x="-12" y="-10" width="24" height="20" rx="5" ry="5" fill="#ff8c00"/>
                <text x="0" y="7" text-anchor="middle" font-size="14" font-weight="bold" fill="white">16</text>
            </g>
        </symbol>
        <symbol id="x3" viewPort="0 0 50 50">
            <image xlink:href="https://mnemo.pro/image/wireI.png" x="0" y="0" width="50" height="50"/>
            <image xlink:href="https://mnemo.pro/image/times-3.png" x="0" y="0" width="50" height="50"/>
            <g class="data-in-top">
                <rect x="-8" y="-10" width="16" height="20" rx="5" ry="5" fill="#ff8c00"/>
                <text x="0" y="7" text-anchor="middle" font-size="14" font-weight="bold" fill="white">8</text>
            </g>
            <g class="data-out-bottom">
                <rect x="-12" y="-10" width="24" height="20" rx="5" ry="5" fill="#ff8c00"/>
                <text x="0" y="7" text-anchor="middle" font-size="14" font-weight="bold" fill="white">24</text>
            </g>
        </symbol>
        <symbol id="d2" viewPort="0 0 50 50">
            <image xlink:href="https://mnemo.pro/image/wireI.png" x="0" y="0" width="50" height="50"/>
            <image xlink:href="https://mnemo.pro/image/div-2.png" x="0" y="0" width="50" height="50"/>
            <g class="data-in-top">
                <rect x="-8" y="-10" width="16" height="20" rx="5" ry="5" fill="#ff8c00"/>
                <text x="0" y="7" text-anchor="middle" font-size="14" font-weight="bold" fill="white">8</text>
            </g>
            <g class="data-out-bottom">
                <rect x="-8" y="-10" width="16" height="20" rx="5" ry="5" fill="#ff8c00"/>
                <text x="0" y="7" text-anchor="middle" font-size="14" font-weight="bold" fill="white">4</text>
            </g>
        </symbol>
        <symbol id="log10" viewPort="0 0 50 50">
            <image xlink:href="https://mnemo.pro/image/wireI.png" x="0" y="0" width="50" height="50"/>
            <image xlink:href="https://mnemo.pro/image/log10.png" x="0" y="0" width="50" height="50"/>
            <g class="data-in-top">
                <rect x="-24" y="-10" width="48" height="20" rx="5" ry="5" fill="#ff8c00"/>
                <text x="0" y="7" text-anchor="middle" font-size="14" font-weight="bold" fill="white">10000</text>
            </g>
            <g class="data-out-bottom">
                <rect x="-8" y="-10" width="16" height="20" rx="5" ry="5" fill="#ff8c00"/>
                <text x="0" y="7" text-anchor="middle" font-size="14" font-weight="bold" fill="white">4</text>
            </g>
        </symbol>
    </defs>
    <use xlink:href="#plus1" x="0" y="0" width="50" height="50" />
    <use xlink:href="#x2" x="70" y="0" width="50" height="50" />
    <use xlink:href="#x3" x="140" y="0" width="50" height="50" />
    <use xlink:href="#d2" x="210" y="0" width="50" height="50" />
    <use xlink:href="#log10" x="280" y="0" width="50" height="50" />
</svg>