<?xml version="1.0" encoding="utf-8"?>
<!-- Generator: Adobe Illustrator 20.0.0, SVG Export Plug-In . SVG Version: 6.00 Build 0)  -->
<svg version="1.1" id="レイヤー_1" xmlns="http://www.w3.org/2000/svg" xmlns:xlink="http://www.w3.org/1999/xlink" x="0px"
	 y="0px" viewBox="0 0 673.1 398.2" style="enable-background:new 0 0 673.1 398.2;" xml:space="preserve">
<style type="text/css">
	.st0{clip-path:url(#SVGID_2_);fill:url(#SVGID_3_);}
	.st1{clip-path:url(#SVGID_2_);fill:url(#SVGID_4_);}
	.st2{clip-path:url(#SVGID_2_);fill:#A87D50;}
	.st3{clip-path:url(#SVGID_2_);fill:#3A7E3D;}
	.st4{clip-path:url(#SVGID_2_);fill:url(#SVGID_5_);}
	.st5{clip-path:url(#SVGID_2_);fill:url(#SVGID_6_);}
	.st6{clip-path:url(#SVGID_2_);fill:url(#SVGID_7_);}
	.st7{clip-path:url(#SVGID_2_);fill:#408B41;}
</style>
<g>
	<defs>
		<rect id="SVGID_1_" width="673.1" height="398.2"/>
	</defs>
	<clipPath id="SVGID_2_">
		<use xlink:href="#SVGID_1_"  style="overflow:visible;"/>
	</clipPath>
	<linearGradient id="SVGID_3_" gradientUnits="userSpaceOnUse" x1="335.3567" y1="-97.1363" x2="335.3567" y2="386.3715">
		<stop  offset="4.945060e-02" style="stop-color:#AEDEE5"/>
		<stop  offset="0.3352" style="stop-color:#59B6DD"/>
		<stop  offset="0.7527" style="stop-color:#AEDEE5"/>
		<stop  offset="1" style="stop-color:#F2F2F2"/>
	</linearGradient>
	<rect x="-6.5" y="-6.5" class="st0" width="683.6" height="384.6"/>
	<linearGradient id="SVGID_4_" gradientUnits="userSpaceOnUse" x1="83.7515" y1="301.1807" x2="83.7515" y2="422.3731">
		<stop  offset="0.4231" style="stop-color:#8BC540"/>
		<stop  offset="0.8681" style="stop-color:#00A456"/>
	</linearGradient>
	<ellipse class="st1" cx="83.8" cy="372.1" rx="157.4" ry="48.2"/>
	<path class="st2" d="M133.7,342.8c0,1.1-0.9,2-2,2l0,0c-1.1,0-2-0.9-2-2v-13.6c0-1.1,0.9-2,2-2l0,0c1.1,0,2,0.9,2,2V342.8z"/>
	<path class="st3" d="M145.7,315.6c-0.3-0.5-0.8-0.9-1.4-1.1c-0.1,0-0.3-0.1-0.4-0.1c-0.2-1-1-1.9-2-2.3c-0.1-0.6-0.5-1.1-1.3-1.4
		c-0.4-0.6-1.1-1.1-1.9-1.4c-0.8-0.3-1.6-0.3-2.2-0.1c-0.3-0.7-1-1.2-1.7-1.5c-1.5-0.5-3.1,0.1-3.7,1.4c-0.2,0-0.4,0-0.6,0.1
		c-0.3-0.6-0.9-1.2-1.7-1.4c-1.5-0.5-3.1,0.2-3.6,1.6c-0.1,0.3-0.1,0.5-0.1,0.8c-1.2,0-2.4,0.9-2.9,2.3c-0.5,1.3-0.2,2.6,0.7,3.4
		c0,0.2,0,0.4,0,0.6c-1.8,0.5-3.1,1.7-3.1,3c0,0.3,0.1,0.6,0.2,0.8c-0.3,0-0.5-0.1-0.8-0.1c-2.1,0-3.9,1.4-3.9,3.2
		c0,1.7,1.7,3.2,3.9,3.2c0.2,0,0.5,0,0.7-0.1c0,0.1,0,0.1,0,0.2c0,1.4,1.5,2.5,3.5,2.7c0.4,0.2,0.8,0.3,1.2,0.4
		c0.1,1.6,1.8,2.9,3.9,2.9c1.5,0,2.8-0.7,3.5-1.7c1,0.6,2.4,0.9,3.9,0.9c3,0,5.4-1.3,5.4-3c0-0.2,0-0.3-0.1-0.5c0.6-0.4,1-1,1-1.6
		c0,0,0-0.1,0-0.1c0.3,0.1,0.6,0.1,0.9,0.1c1.6,0,2.9-0.9,2.9-2c0-0.2-0.1-0.4-0.1-0.6c0.5-0.3,0.9-0.7,0.9-1.1c0-0.5-0.4-0.9-1-1.2
		c0,0,0,0,0,0c0-0.4-0.2-0.7-0.6-1c1.3-0.1,2.4-0.7,2.7-1.7C148,317.9,147.2,316.4,145.7,315.6z"/>
	<linearGradient id="SVGID_5_" gradientUnits="userSpaceOnUse" x1="374.4782" y1="307.6641" x2="374.4782" y2="428.8565">
		<stop  offset="0.4231" style="stop-color:#8BC540"/>
		<stop  offset="0.8681" style="stop-color:#00A456"/>
	</linearGradient>
	<ellipse class="st4" cx="374.5" cy="378.6" rx="157.4" ry="48.2"/>
	<linearGradient id="SVGID_6_" gradientUnits="userSpaceOnUse" x1="599.9507" y1="300.0118" x2="599.9507" y2="421.2042">
		<stop  offset="0.1484" style="stop-color:#8BC540"/>
		<stop  offset="0.8681" style="stop-color:#00A456"/>
	</linearGradient>
	<ellipse class="st5" cx="600" cy="370.9" rx="157.4" ry="48.2"/>
	<path class="st2" d="M492.7,342.8c0,1.1-0.9,2-2,2l0,0c-1.1,0-2-0.9-2-2v-13.6c0-1.1,0.9-2,2-2l0,0c1.1,0,2,0.9,2,2V342.8z"/>
	<linearGradient id="SVGID_7_" gradientUnits="userSpaceOnUse" x1="328.8411" y1="297.795" x2="328.8411" y2="474.5337">
		<stop  offset="4.945060e-02" style="stop-color:#B3D234"/>
		<stop  offset="0.1593" style="stop-color:#C8D92B"/>
		<stop  offset="0.4231" style="stop-color:#8BC540"/>
		<stop  offset="0.8681" style="stop-color:#00A456"/>
	</linearGradient>
	<path class="st6" d="M550.8,339.3c-16.3,0-32.1,1.2-46.8,3.3c-21.6-2.3-48-3.7-76.6-3.7c-41,0-77.7,2.8-102,7.3
		c-1.5,0-3-0.1-4.4-0.1c-27.1-9.4-65-15.2-107-15.2c-37.5,0-71.7,4.6-98,12.3c-11.2-1.5-23.1-2.3-35.4-2.3
		c-68.1,0-123.3,24.3-123.3,54.2c0,29.9,55.2,54.2,123.3,54.2c38.2,0,72.3-7.6,94.9-19.6c31.8,11.4,79.9,18.6,133.7,18.6
		c41.8,0,80.1-4.4,110-11.6c25.3,20.7,74.7,34.7,131.5,34.7c82.5,0,149.4-29.6,149.4-66.1C700.2,368.9,633.3,339.3,550.8,339.3z"/>
	<path class="st2" d="M285.7,348.5c0,1.1-0.9,2-2,2l0,0c-1.1,0-2-0.9-2-2v-13.6c0-1.1,0.9-2,2-2l0,0c1.1,0,2,0.9,2,2V348.5z"/>
	<path class="st2" d="M614,327.2c0,1.1-0.9,2-2,2l0,0c-1.1,0-2-0.9-2-2v-13.6c0-1.1,0.9-2,2-2l0,0c1.1,0,2,0.9,2,2V327.2z"/>
	<path class="st3" d="M296.7,332.6c0-0.7-0.5-1.4-1.3-1.8c0-0.2,0-0.4,0-0.7c0-0.6-0.1-1.2-0.2-1.7c0.4-0.3,0.6-0.7,0.6-1.2
		c0-0.3-0.1-0.6-0.3-0.8c0.6-0.3,1-0.8,1-1.3c0-0.8-0.9-1.5-2.1-1.7c0.2-0.4,0.2-0.8,0.2-1.2c0-1.7-1.3-3.1-2.9-3.1c0,0,0,0,0,0
		c0-0.1,0-0.2,0-0.3c0-1.3-1.3-2.3-3-2.3c-0.8,0-1.4,0.2-2,0.6c-1-0.8-2.8-1.3-4.8-1.3c-2.9,0-5.3,1-5.5,2.3
		c-0.5,0.1-0.9,0.3-1.2,0.4c-0.7-0.3-1.6-0.5-2.5-0.5c-2.2,0-4,1-4,2.2c-1.5,0.3-2.6,1.3-2.6,2.4c0,1.1,1,2,2.3,2.4
		c0,0.1,0,0.1,0,0.2c0,1.1,1.3,2,3.1,2.4c-0.2,0.3-0.3,0.7-0.4,1.1c-0.2,0-0.3,0-0.5,0c-1.6,0-3,0.9-3,1.9c0,1,1.2,1.8,2.8,1.9
		c0,0.1-0.1,0.2-0.1,0.4c0,1.4,1.6,2.5,3.6,2.5c0.2,0,0.4,0,0.6,0c0.3,0.6,1.3,1,2.5,1c1.5,0,2.7-0.7,2.7-1.5c0-0.1,0-0.2,0-0.2
		c0.2,0,0.4,0,0.5,0c1.3,0,2.5-0.4,3.2-0.9c0.6,0.6,1.7,1.1,2.9,1.1c0.4,0,0.7,0,1-0.1c0.8,0.6,2,0.9,3.4,0.9c1.4,0,2.6-0.4,3.4-1
		C295.6,334.5,296.7,333.6,296.7,332.6z M289.1,321.1C289.1,321.1,289.1,321.1,289.1,321.1C289.1,321.1,289.1,321.1,289.1,321.1
		C289.1,321.1,289.1,321.1,289.1,321.1z"/>
	<path class="st7" d="M293.7,347.8c0,0-2,1.4-2.6,1.9c0.1-0.5-1.6-1.8-1.6-1.8l-0.3,2l-1.3-1.5l-0.7,0.8c-0.1-0.6-0.4-1.3-0.4-1.3
		s-0.9,0.7-1.7,1.2v-0.9l-0.8,1.4l-0.8-2.1l-0.4,1c-0.3-0.3-0.6-0.5-0.6-0.5l-0.2,1l-2.9-1.4l1.1,1.3l-0.6,0.6l-0.4-1l-1.5,1v-1.4
		l-0.8,1.4l-0.8-2.1l-0.7,1.8l-3.4-1.7l2.6,3.1l3.7,0h6.9c0,0,6.9-0.2,8-0.3C294.8,350.2,293.7,347.8,293.7,347.8z"/>
	<path class="st2" d="M377.2,331c0,0.3-0.2,0.5-0.5,0.5l0,0c-0.3,0-0.5-0.2-0.5-0.5v-3.4c0-0.3,0.2-0.5,0.5-0.5l0,0
		c0.3,0,0.5,0.2,0.5,0.5V331z"/>
	<path class="st3" d="M374,327.6c0.2,0.1,0.5,0.2,0.8,0.2c0.3,0,0.6-0.1,0.8-0.2c0.1,0,0.2,0,0.3,0c0.3,0,0.6-0.1,0.7-0.3
		c0.2,0.1,0.5,0.2,0.8,0.2c0,0,0.1,0,0.1,0c0,0,0,0,0,0.1c0,0.2,0.3,0.4,0.7,0.4c0.3,0,0.5-0.1,0.6-0.3c0,0,0.1,0,0.1,0
		c0.5,0,0.9-0.3,0.9-0.6c0,0,0-0.1,0-0.1c0.4,0,0.7-0.2,0.7-0.5c0-0.3-0.3-0.5-0.7-0.5c0,0-0.1,0-0.1,0c0-0.1,0-0.2-0.1-0.3
		c0.4-0.1,0.8-0.3,0.8-0.6c0,0,0,0,0,0c0.3-0.1,0.6-0.3,0.6-0.6c0-0.3-0.3-0.5-0.6-0.6c0-0.3-0.4-0.5-1-0.5c-0.2,0-0.5,0-0.6,0.1
		c-0.1,0-0.2-0.1-0.3-0.1c-0.1-0.3-0.6-0.6-1.4-0.6c-0.5,0-0.9,0.1-1.2,0.3c-0.1-0.1-0.3-0.1-0.5-0.1c-0.4,0-0.7,0.3-0.7,0.6
		c0,0,0,0,0,0.1c0,0,0,0,0,0c-0.4,0-0.7,0.3-0.7,0.8c0,0.1,0,0.2,0.1,0.3c-0.3,0.1-0.5,0.2-0.5,0.4c0,0.1,0.1,0.2,0.2,0.3
		c0,0.1-0.1,0.1-0.1,0.2c0,0.1,0.1,0.2,0.2,0.3c0,0.1,0,0.3,0,0.4c0,0.1,0,0.1,0,0.2c-0.2,0.1-0.3,0.3-0.3,0.4
		C373.4,327.4,373.7,327.6,374,327.6z M375.3,324.3C375.3,324.3,375.3,324.3,375.3,324.3C375.3,324.3,375.3,324.3,375.3,324.3
		C375.3,324.3,375.3,324.3,375.3,324.3z"/>
	<path class="st7" d="M379.2,330.9c0,0-0.5,0.3-0.6,0.5c0-0.1-0.4-0.4-0.4-0.4l-0.1,0.5l-0.3-0.4l-0.2,0.2c0-0.2-0.1-0.3-0.1-0.3
		s-0.2,0.2-0.4,0.3V331l-0.2,0.3l-0.2-0.5l-0.1,0.3c-0.1-0.1-0.1-0.1-0.1-0.1l0,0.2l-0.7-0.4l0.3,0.3l-0.1,0.2l-0.1-0.2l-0.4,0.3
		V331l-0.2,0.3l-0.2-0.5l-0.2,0.4l-0.8-0.4l0.6,0.8l0.9,0h1.7c0,0,1.7,0,2-0.1C379.4,331.5,379.2,330.9,379.2,330.9z"/>
	<path class="st3" d="M629.8,306.9c0-0.6-0.5-1.1-1.1-1.4c0,0,0,0,0,0c0-0.9-0.9-1.5-2.1-1.5c-0.5,0-1,0.1-1.3,0.4
		c-0.1-0.4-0.5-0.8-0.9-1.1c-0.5-1-1.7-1.8-3.3-1.8c-0.1-1.3-1.3-2.4-2.8-2.4c-0.5,0-0.9,0.1-1.3,0.3c-0.7-0.8-2-1.4-3.4-1.4
		c-1.2,0-2.4,0.4-3.1,1.1c-0.6-1.2-2.1-2-3.9-2c-1.7,0-3.1,0.7-3.8,1.8c-2.6,0.4-4.6,1.9-4.6,3.7c0,0.3,0.1,0.7,0.2,1
		c-0.3,0-0.6-0.1-0.9-0.1c-2.5,0-4.6,1.7-4.6,3.7c0,2.1,2,3.7,4.6,3.7c0.3,0,0.6,0,0.8-0.1c0,0.1,0,0.2,0,0.3c0,1.6,1.8,2.9,4.1,3.2
		c0.4,0.2,0.9,0.3,1.4,0.5c0.1,1.9,2.1,3.4,4.6,3.4c1.8,0,3.3-0.8,4.1-2c1.2,0.7,2.8,1.1,4.6,1.1c3.5,0,6.4-1.6,6.4-3.5
		c0-0.2,0-0.4-0.1-0.6c0.7-0.5,1.1-1.2,1.1-1.9c0,0,0-0.1,0-0.1c0.3,0.1,0.7,0.1,1.1,0.1c1.9,0,3.4-1,3.4-2.3c0-0.2-0.1-0.5-0.2-0.7
		C629.4,307.9,629.8,307.4,629.8,306.9z M624.5,306.1C624.5,306.1,624.5,306.1,624.5,306.1C624.5,306.1,624.5,306.1,624.5,306.1
		C624.6,306.1,624.5,306.1,624.5,306.1z"/>
	<path class="st7" d="M619.9,327.2c0,0-1.5,1-1.9,1.4c0-0.4-1.2-1.3-1.2-1.3l-0.2,1.4l-0.9-1.1l-0.5,0.6c-0.1-0.5-0.3-1-0.3-1
		s-0.7,0.5-1.3,0.9v-0.7l-0.6,1l-0.6-1.6l-0.3,0.8c-0.2-0.2-0.4-0.4-0.4-0.4l-0.1,0.7l-2.2-1.1l0.8,1l-0.4,0.5l-0.3-0.7l-1.1,0.8v-1
		l-0.6,1l-0.6-1.6l-0.5,1.3l-2.5-1.2l1.9,2.3l2.7,0h5.1c0,0,5.1-0.1,5.9-0.2C620.7,329,619.9,327.2,619.9,327.2z"/>
	<path class="st2" d="M38.7,327.4v-4.2c0-0.3,0.2-0.6,0.4-0.6l0,0c0.2,0,0.4,0.3,0.4,0.6v4.2"/>
	<path class="st3" d="M45.2,320.3c0-0.2-0.1-0.3-0.4-0.4c0,0,0,0,0,0c0-0.3-0.3-0.5-0.6-0.5c-0.2,0-0.3,0-0.4,0.1
		c0-0.1-0.1-0.2-0.3-0.3c-0.1-0.3-0.5-0.6-1-0.6c0-0.4-0.4-0.7-0.9-0.7c-0.2,0-0.3,0-0.4,0.1c-0.2-0.3-0.6-0.4-1.1-0.4
		c-0.4,0-0.7,0.1-1,0.3c-0.2-0.4-0.7-0.6-1.2-0.6c-0.5,0-0.9,0.2-1.2,0.5c-0.8,0.1-1.4,0.6-1.4,1.2c0,0.1,0,0.2,0.1,0.3
		c-0.1,0-0.2,0-0.3,0c-0.8,0-1.4,0.5-1.4,1.1c0,0.6,0.6,1.1,1.4,1.1c0.1,0,0.2,0,0.3,0c0,0,0,0.1,0,0.1c0,0.5,0.6,0.9,1.3,1
		c0.1,0.1,0.3,0.1,0.4,0.1c0,0.6,0.7,1.1,1.4,1.1c0.5,0,1-0.3,1.3-0.6c0.4,0.2,0.9,0.3,1.4,0.3c1.1,0,2-0.5,2-1.1c0-0.1,0-0.1,0-0.2
		c0.2-0.2,0.3-0.4,0.3-0.6c0,0,0,0,0,0c0.1,0,0.2,0,0.3,0c0.6,0,1-0.3,1-0.7c0-0.1,0-0.1-0.1-0.2C45.1,320.6,45.2,320.5,45.2,320.3z
		 M43.6,320.1C43.6,320.1,43.6,320.1,43.6,320.1C43.6,320.1,43.6,320.1,43.6,320.1C43.6,320.1,43.6,320.1,43.6,320.1z"/>
	<path class="st3" d="M504.7,315.6c-0.3-0.5-0.8-0.9-1.4-1.1c-0.1,0-0.3-0.1-0.4-0.1c-0.2-1-1-1.9-2-2.3c-0.1-0.6-0.5-1.1-1.3-1.4
		c-0.4-0.6-1.1-1.1-1.9-1.4c-0.8-0.3-1.6-0.3-2.2-0.1c-0.3-0.7-1-1.2-1.7-1.5c-1.5-0.5-3.1,0.1-3.7,1.4c-0.2,0-0.4,0-0.6,0.1
		c-0.3-0.6-0.9-1.2-1.7-1.4c-1.5-0.5-3.1,0.2-3.6,1.6c-0.1,0.3-0.1,0.5-0.1,0.8c-1.2,0-2.4,0.9-2.9,2.3c-0.5,1.3-0.2,2.6,0.7,3.4
		c0,0.2,0,0.4,0,0.6c-1.8,0.5-3.1,1.7-3.1,3c0,0.3,0.1,0.6,0.2,0.8c-0.3,0-0.5-0.1-0.8-0.1c-2.1,0-3.9,1.4-3.9,3.2
		c0,1.7,1.7,3.2,3.9,3.2c0.2,0,0.5,0,0.7-0.1c0,0.1,0,0.1,0,0.2c0,1.4,1.5,2.5,3.5,2.7c0.4,0.2,0.8,0.3,1.2,0.4
		c0.1,1.6,1.8,2.9,3.9,2.9c1.5,0,2.8-0.7,3.5-1.7c1,0.6,2.4,0.9,3.9,0.9c3,0,5.4-1.3,5.4-3c0-0.2,0-0.3-0.1-0.5c0.6-0.4,1-1,1-1.6
		c0,0,0-0.1,0-0.1c0.3,0.1,0.6,0.1,0.9,0.1c1.6,0,2.9-0.9,2.9-2c0-0.2-0.1-0.4-0.1-0.6c0.5-0.3,0.9-0.7,0.9-1.1c0-0.5-0.4-0.9-1-1.2
		c0,0,0,0,0,0c0-0.4-0.2-0.7-0.6-1c1.3-0.1,2.4-0.7,2.7-1.7C507,317.9,506.2,316.4,504.7,315.6z"/>
	<path class="st7" d="M41.4,326.9c0,0-0.5,0.3-0.6,0.4c0-0.1-0.4-0.4-0.4-0.4l-0.1,0.5L40,327l-0.2,0.2c0-0.1-0.1-0.3-0.1-0.3
		s-0.2,0.2-0.4,0.3v-0.2l-0.2,0.3l-0.2-0.5l-0.1,0.2c-0.1-0.1-0.1-0.1-0.1-0.1l0,0.2l-0.7-0.3l0.2,0.3l-0.1,0.1l-0.1-0.2l-0.3,0.2
		v-0.3l-0.2,0.3l-0.2-0.5l-0.2,0.4l-0.8-0.4l0.6,0.7l0.8,0h1.6c0,0,1.6,0,1.8-0.1C41.6,327.4,41.4,326.9,41.4,326.9z"/>
</g>
</svg>
