<svg xmlns="http://www.w3.org/2000/svg" xmlns:xlink="http://www.w3.org/1999/xlink" viewBox="0 0 954 291">
    <defs>
        <linearGradient id="b" x1="595.92" y1="-28.76" x2="595.92" y2="173.61" gradientTransform="rotate(1 -3034.6 255.677)" gradientUnits="userSpaceOnUse">
            <stop offset="0" stop-color="#ff542a"/>
            <stop offset="1" stop-color="#ff0007"/>
        </linearGradient>
        <linearGradient id="c" x1="121.44" y1="34.58" x2="121.44" y2="238.7" gradientTransform="rotate(-11.5 211.495 202.05)" gradientUnits="userSpaceOnUse">
            <stop offset="0" stop-color="#e62aff"/>
            <stop offset="1" stop-color="#ff2a7f"/>
        </linearGradient>
        <linearGradient id="a" x1="360.18" y1="280.2" x2="503.84" y2="117.67" gradientTransform="rotate(-11.5 211.495 202.05)" gradientUnits="userSpaceOnUse">
            <stop offset="0" stop-color="#63ff2a"/>
            <stop offset="1" stop-color="#009426"/>
        </linearGradient>
        <linearGradient id="d" x1="765.06" y1="242.69" x2="765.06" y2="443.01" gradientTransform="rotate(11.5 1581.34 364.063)" gradientUnits="userSpaceOnUse">
            <stop offset="0" stop-color="#aa9c00"/>
            <stop offset="1" stop-color="#bf9000"/>
        </linearGradient>
        <linearGradient id="e" x1="300.27" y1="69.98" x2="300.27" y2="270.3" gradientTransform="rotate(11 367.41 169.015)" gradientUnits="userSpaceOnUse">
            <stop offset="0" stop-color="#0400ff"/>
            <stop offset="1" stop-color="#2a85ff"/>
        </linearGradient>
        <linearGradient id="f" x1="846.23" y1="367.17" x2="977.23" y2="218.96" gradientTransform="translate(7 -133)" xlink:href="#a"/>
    </defs>
    <title>
        clear
    </title>
    <path d="M550 55c7-23 18-31 38-30s30 9 36 32l38 147a18 18 0 0 1 1 6 20 20 0 0 1-20 19 19 19 0 0 1-18-15l-8-34-66-2-10 34a19 19 0 0 1-19 14 19 19 0 0 1-19-20 18 18 0 0 1 1-6zm10 91h49l-21-86h-3z"/>
    <path d="M550 55c7-23 18-31 38-30s30 9 36 32l38 147a18 18 0 0 1 1 6 20 20 0 0 1-20 19 19 19 0 0 1-18-15l-8-34-66-2-10 34a19 19 0 0 1-19 14 19 19 0 0 1-19-20 18 18 0 0 1 1-6zm10 91h49l-21-86h-3z" fill="none" stroke="#000" stroke-width="44"/>
    <path d="M550 55c7-23 18-31 38-30s30 9 36 32l38 147a18 18 0 0 1 1 6 20 20 0 0 1-20 19 19 19 0 0 1-18-15l-8-34-66-2-10 34a19 19 0 0 1-19 14 19 19 0 0 1-19-20 18 18 0 0 1 1-6zm10 91h49l-21-86h-3z" fill="none" stroke="#fff" stroke-width="40"/>
    <path d="M563 69c7-23 18-31 38-30s30 9 36 32l38 147a18 18 0 0 1 1 6 20 20 0 0 1-20 19 19 19 0 0 1-18-15l-8-34-66-2-10 34a19 19 0 0 1-19 14 19 19 0 0 1-19-20 18 18 0 0 1 1-6zm10 91h49l-21-86h-3z" transform="translate(-13 -14)" fill="url(#b)"/>
    <path d="M93 75c-32 6-36 40-29 76s24 62 59 55a72 72 0 0 0 25-10c6-4 10-7 16-9s18 4 19 13 0 11-6 17-35 20-51 24c-56 11-90-28-101-83S28 52 84 41c16-3 32-3 43 0s24 11 29 27l3 10c4 15-3 22-12 24s-17-2-22-13l-5-12c-7-4-19-4-27-2z"/>
    <path d="M93 75c-32 6-36 40-29 76s24 62 59 55a72 72 0 0 0 25-10c6-4 10-7 16-9s18 4 19 13 0 11-6 17-35 20-51 24c-56 11-90-28-101-83S28 52 84 41c16-3 32-3 43 0s24 11 29 27l3 10c4 15-3 22-12 24s-17-2-22-13l-5-12c-7-4-19-4-27-2z" fill="none" stroke="#000" stroke-width="44"/>
    <path d="M93 75c-32 6-36 40-29 76s24 62 59 55a72 72 0 0 0 25-10c6-4 10-7 16-9s18 4 19 13 0 11-6 17-35 20-51 24c-56 11-90-28-101-83S28 52 84 41c16-3 32-3 43 0s24 11 29 27l3 10c4 15-3 22-12 24s-17-2-22-13l-5-12c-7-4-19-4-27-2z" fill="none" stroke="#fff" stroke-width="40"/>
    <path d="M106 89c-32 6-36 40-29 76s24 62 59 55a72 72 0 0 0 25-10c6-4 10-7 16-9s18 4 19 13 0 11-6 17-35 20-51 24c-56 11-90-28-101-83S41 66 97 55c16-3 32-3 43 0s24 11 29 27l3 10c4 15-3 22-12 24s-17-2-22-13l-5-12c-7-4-19-4-27-2z" transform="translate(-13 -14)" fill="url(#c)"/>
    <path d="M336 76c-2-11 4-21 15-23l87-18a17.357 17.357 0 1 1 7 34l-68 14 9 44 52-11a17 17 0 0 1 20 13 18 18 0 0 1-13 20l-52 11 10 49 68-14a17.357 17.357 0 1 1 7 34l-88 18a19 19 0 0 1-23-15z"/>
    <path d="M336 76c-2-11 4-21 15-23l87-18a17.357 17.357 0 1 1 7 34l-68 14 9 44 52-11a17 17 0 0 1 20 13 18 18 0 0 1-13 20l-52 11 10 49 68-14a17.357 17.357 0 1 1 7 34l-88 18a19 19 0 0 1-23-15z" fill="none" stroke="#000" stroke-width="44"/>
    <path d="M336 76c-2-11 4-21 15-23l87-18a17.357 17.357 0 1 1 7 34l-68 14 9 44 52-11a17 17 0 0 1 20 13 18 18 0 0 1-13 20l-52 11 10 49 68-14a17.357 17.357 0 1 1 7 34l-88 18a19 19 0 0 1-23-15z" fill="none" stroke="#fff" stroke-width="40"/>
    <path d="M349 90c-2-11 4-21 15-23l87-18a17 17 0 1 1 7 34l-68 14 9 44 52-11a17 17 0 0 1 20 13 18 18 0 0 1-13 20l-52 11 10 49 68-14a17 17 0 1 1 7 34l-88 18a19 19 0 0 1-23-15z" transform="translate(-13 -14)" fill="url(#a)"/>
    <path d="M726 226a20 20 0 0 1-23 15 19 19 0 0 1-15-23l33-158a19 19 0 0 1 23-15l49 10c37 8 62 40 54 77-5 24-22 38-42 43l21 59c1 3 3 9 2 13s-13 16-23 14-12-8-14-13l-23-71-13-2-16-3zm18-84l27 6c19 4 34-5 38-23s-7-33-25-36l-27-6z"/>
    <path d="M726 226a20 20 0 0 1-23 15 19 19 0 0 1-15-23l33-158a19 19 0 0 1 23-15l49 10c37 8 62 40 54 77-5 24-22 38-42 43l21 59c1 3 3 9 2 13s-13 16-23 14-12-8-14-13l-23-71-13-2-16-3zm18-84l27 6c19 4 34-5 38-23s-7-33-25-36l-27-6z" fill="none" stroke="#000" stroke-width="44"/>
    <path d="M726 226a20 20 0 0 1-23 15 19 19 0 0 1-15-23l33-158a19 19 0 0 1 23-15l49 10c37 8 62 40 54 77-5 24-22 38-42 43l21 59c1 3 3 9 2 13s-13 16-23 14-12-8-14-13l-23-71-13-2-16-3zm18-84l27 6c19 4 34-5 38-23s-7-33-25-36l-27-6z" fill="none" stroke="#fff" stroke-width="40"/>
    <path d="M739 240a20 20 0 0 1-23 15 19 19 0 0 1-15-23l33-158a19 19 0 0 1 23-15l49 10c37 8 62 40 54 77-5 24-22 38-42 43l21 59c1 3 3 9 2 13s-13 16-23 14-12-8-14-13l-23-71-13-2-16-3zm18-84l27 6c19 4 34-5 38-23s-7-33-25-36l-27-6z" transform="translate(-13 -14)" fill="url(#d)"/>
    <path d="M245 51a19 19 0 0 1 23-15 19 19 0 0 1 16 23l-28 144 63 12a17.263 17.263 0 1 1-6 34l-82-16a19 19 0 0 1-15-23z"/>
    <path d="M245 51a19 19 0 0 1 23-15 19 19 0 0 1 16 23l-28 144 63 12a17.263 17.263 0 1 1-6 34l-82-16a19 19 0 0 1-15-23z" fill="none" stroke="#000" stroke-width="44"/>
    <path d="M245 51a19 19 0 0 1 23-15 19 19 0 0 1 16 23l-28 144 63 12a17.263 17.263 0 1 1-6 34l-82-16a19 19 0 0 1-15-23z" fill="none" stroke="#fff" stroke-width="40"/>
    <path d="M258 65a19 19 0 0 1 23-15 19 19 0 0 1 16 23l-28 144 63 12a17 17 0 1 1-6 34l-82-16a19 19 0 0 1-15-23z" transform="translate(-13 -14)" fill="url(#e)"/>
    <path d="M906 216a26 26 0 0 1 26 26c0 15-11 27-26 27a26 26 0 0 1-27-26c0-15 12-27 27-27zM881 45c0-13 10-24 24-24s24 10 24 23l-3 132c0 11-9 20-20 20s-21-8-21-20z"/>
    <path d="M906 216a26 26 0 0 1 26 26c0 15-11 27-26 27a26 26 0 0 1-27-26c0-15 12-27 27-27zM881 45c0-13 10-24 24-24s24 10 24 23l-3 132c0 11-9 20-20 20s-21-8-21-20z" fill="none" stroke="#000" stroke-width="44"/>
    <path d="M906 216a26 26 0 0 1 26 26c0 15-11 27-26 27a26 26 0 0 1-27-26c0-15 12-27 27-27zM881 45c0-13 10-24 24-24s24 10 24 23l-3 132c0 11-9 20-20 20s-21-8-21-20z" fill="none" stroke="#fff" stroke-width="40"/>
    <path d="M919 230a26 26 0 0 1 26 26c0 15-11 27-26 27a26 26 0 0 1-27-26c0-15 12-27 27-27zM894 59c0-13 10-24 24-24s24 10 24 23l-3 132c0 11-9 20-20 20s-21-8-21-20z" transform="translate(-13 -14)" fill="url(#f)"/>
    <circle cx="778" cy="119" r="20" fill="#fff"/>
</svg>
